<?xml version="1.0" encoding="utf-8"?>
<!-- Generator: Adobe Illustrator 28.0.0, SVG Export Plug-In . SVG Version: 6.00 Build 0)  -->
<svg version="1.1" id="Layer_1" xmlns="http://www.w3.org/2000/svg" xmlns:xlink="http://www.w3.org/1999/xlink" x="0px" y="0px"
	 viewBox="0 0 665.2 436.4" style="enable-background:new 0 0 665.2 436.4;" xml:space="preserve">
<style type="text/css">
	.st0{fill:#FFFFFF;}
	.st1{fill:#FF5E5B;}
	.st2{fill:url(#SVGID_1_);}
</style>
<g id="Layer_1-2">
	<g id="Layer_1-3">
		<g>
			<path class="st0" d="M516.5,241.9c-23.9,2.7-43.8,1.3-43.8,1.3V93.6h30.5c19.9,0,38.4,8,51.6,23.9c9.2,10.6,15.9,25.2,15.9,46.4
				C570.8,212.9,545.6,232.7,516.5,241.9L516.5,241.9z M645,137.3c-9.2-46.4-33.1-75.5-59.6-92.7C559,26,527.2,16.8,495.4,16.8
				l-455.8,0c-15.9,0-22.5,15.9-22.5,23.9V46c0,0-1.3,201.3,1.3,310c3.9,63.6,67.5,63.6,67.5,63.6s207.9,0,308.6-1.3
				c5.3,0,9.2,0,14.5-1.3c56.9-14.5,62.2-67.5,62.2-96.7C585.3,325.4,666.2,244.6,645,137.3L645,137.3z"/>
			<g>
				<path d="M661.5,134.2L661.5,134.2l0-0.1l0-0.1C650.2,77.2,619,46.5,594.9,30.7C566.6,10.9,531.3,0,495.4,0L39.6,0
					C14,0,0.3,23.6,0.3,40.7v5.2c0,2-1.3,202.8,1.3,310.5c0,0.2,0,0.4,0,0.6c2.5,40.9,25.7,60.5,44.7,69.7
					c19.6,9.5,38.8,9.6,39.6,9.6H86c8.5,0,209.9,0,308.6-1.3c5.7,0,11.2,0,18.4-1.7l0.2-0.1c30-7.7,51.4-25.2,63.6-52.2
					c5.8-12.8,9.2-27.1,10.6-43.8c27.6-0.7,53.5-6.1,77.1-16.2c24.9-10.6,45.9-25.8,62.6-45.1C659.8,237.9,672,187.6,661.5,134.2
					L661.5,134.2z M35.1,355.2c-2.5-105.8-1.3-301-1.2-309.3v-5.2c0.1-0.5,1.3-7.2,5.7-7.2l455.8,0c29.1,0,57.7,8.8,80.4,24.8
					c0.2,0.1,0.3,0.2,0.5,0.3c27.4,17.8,45,45.4,52.3,81.9c8.5,43.1-1.1,83.4-27,113.4c-29.1,33.9-76.4,51.9-129.6,49.5
					c-4.5-0.2-9,1.5-12.3,4.6c-3.3,3.2-5.2,7.6-5.2,12.1c0,45.6-16.2,71.9-49.5,80.5c-3.3,0.8-5.7,0.8-10.4,0.8h-0.3
					c-87.6,1.1-256.8,1.2-306.6,1.3h-1.8c-0.1,0-12.6-0.2-25-6.3C45.1,388.8,36.4,374.9,35.1,355.2L35.1,355.2z"/>
				<path d="M471.6,260c0.6,0,6,0.4,14.5,0.4c11,0,21.8-0.6,32.2-1.7c1.1-0.1,2.2-0.3,3.2-0.7c43.8-13.9,66-45.5,66-94
					c0-22.8-6.7-42-19.9-57.2c-16-19.2-38.9-29.9-64.4-29.9h-30.5c-9.2,0-16.8,7.5-16.8,16.8v149.6C456,252,462.8,259.4,471.6,260
					L471.6,260z M489.5,226.8V110.4h13.7c15.5,0,29.2,6.3,38.7,17.8l0.3,0.3c7.9,9.1,11.8,20.7,11.8,35.4c0,33.5-12.3,51.9-41,61.6
					C505.5,226.2,497.6,226.7,489.5,226.8L489.5,226.8z"/>
			</g>
		</g>
		<path class="st1" d="M240.9,334.6c5.3,2.7,8,0,8,0s72.9-66.3,106-104.6c29.1-34.4,30.5-91.4-18.6-112.6
			c-50.3-21.2-91.4,25.2-91.4,25.2c-35.8-39.7-90.1-37.1-115.2-10.6s-15.9,71.6,2.6,98c17.2,23.9,94.1,92.7,106,103.3
			C238.3,332,239.6,333.4,240.9,334.6L240.9,334.6z"/>
		
			<linearGradient id="SVGID_1_" gradientUnits="userSpaceOnUse" x1="168.7783" y1="-3638.5222" x2="254.4883" y2="-3375.4922" gradientTransform="matrix(1 0 0 1 4.1 3594.5898)">
			<stop  offset="0" style="stop-color:#FF4EA3"/>
			<stop  offset="1" style="stop-color:#FF5E5B"/>
		</linearGradient>
		<path class="st2" d="M243.4,336.6c3,0.6,5.5-2,5.5-2s72.9-66.3,106-104.6c29.1-34.4,30.5-91.4-18.6-112.6
			c-50.3-21.2-91.4,25.2-91.4,25.2c-35.8-39.7-90.1-37.1-115.2-10.6s-15.9,71.6,2.6,98c16.2,22.5,97.5,95.7,107.6,104.8
			C240.9,335.7,242.1,336.4,243.4,336.6L243.4,336.6z"/>
	</g>
</g>
</svg>
