<svg width="50" height="614" viewBox="0 0 50 614" fill="none" xmlns="http://www.w3.org/2000/svg">
    <g filter="url(#filter0_d_34_306)">
    <path d="M11.875 191C11.875 194.481 13.2578 197.819 15.7192 200.281C18.1806 202.742 21.519 204.125 25 204.125C28.481 204.125 31.8194 202.742 34.2808 200.281C36.7422 197.819 38.125 194.481 38.125 191C38.125 187.519 36.7422 184.181 34.2808 181.719C31.8194 179.258 28.481 177.875 25 177.875C21.519 177.875 18.1806 179.258 15.7192 181.719C13.2578 184.181 11.875 187.519 11.875 191ZM40 191C40 194.978 38.4196 198.794 35.6066 201.607C32.7936 204.42 28.9782 206 25 206C21.0218 206 17.2064 204.42 14.3934 201.607C11.5804 198.794 10 194.978 10 191C10 187.022 11.5804 183.206 14.3934 180.393C17.2064 177.58 21.0218 176 25 176C28.9782 176 32.7936 177.58 35.6066 180.393C38.4196 183.206 40 187.022 40 191ZM27.4056 183.504V198.5H24.9456V186.009H24.8238L21.385 188.48V186.097L24.9456 183.504H27.4056Z" fill="white"/>
    </g>
    <path d="M25 158.5V0.5" stroke="url(#paint0_linear_34_306)"/>
    <path d="M25 223L25 307" stroke="url(#paint1_linear_34_306)"/>
    <path d="M25 375L25 459" stroke="white" stroke-opacity="0.5"/>
    <path d="M25 530L25 614" stroke="url(#paint2_linear_34_306)" stroke-opacity="0.5"/>
    <g clip-path="url(#clip0_34_306)">
    <path d="M11.875 339C11.875 342.481 13.2578 345.819 15.7192 348.281C18.1806 350.742 21.519 352.125 25 352.125C28.481 352.125 31.8194 350.742 34.2808 348.281C36.7422 345.819 38.125 342.481 38.125 339C38.125 335.519 36.7422 332.181 34.2808 329.719C31.8194 327.258 28.481 325.875 25 325.875C21.519 325.875 18.1806 327.258 15.7192 329.719C13.2578 332.181 11.875 335.519 11.875 339ZM40 339C40 342.978 38.4196 346.794 35.6066 349.607C32.7936 352.42 28.9782 354 25 354C21.0218 354 17.2064 352.42 14.3934 349.607C11.5804 346.794 10 342.978 10 339C10 335.022 11.5804 331.206 14.3934 328.393C17.2064 325.58 21.0218 324 25 324C28.9782 324 32.7936 325.58 35.6066 328.393C38.4196 331.206 40 335.022 40 339ZM22.4612 335.7V335.831H20.0781V335.711C20.0781 333.437 21.7263 331.208 25.0225 331.208C27.9888 331.208 29.9219 332.987 29.9219 335.361C29.9219 337.239 28.7969 338.486 27.5088 339.917L27.3287 340.117L23.6275 344.28V344.424H30.1862V346.5H20.1662V344.94L25.735 338.766C26.5488 337.875 27.4281 336.876 27.4281 335.569C27.4281 334.174 26.3837 333.251 24.9662 333.251C23.3856 333.251 22.4612 334.404 22.4612 335.7Z" fill="white" fill-opacity="0.5"/>
    </g>
    <g clip-path="url(#clip1_34_306)">
    <path d="M24.8463 491.776H23.1981V489.766H24.7694C26.2319 489.766 27.2969 488.787 27.2856 487.447C27.2856 486.117 26.23 485.206 24.7581 485.206C23.2769 485.206 22.2981 486.14 22.2306 487.184H19.8906C19.9581 485.052 21.6719 483.219 24.8125 483.207C27.8013 483.185 29.7025 484.867 29.7569 487.074C29.8 489.206 28.0975 490.404 26.9781 490.589V490.721C28.2963 490.852 30.1844 491.921 30.2294 494.315C30.2744 497.051 27.835 498.807 24.7356 498.807C21.5388 498.807 19.66 496.994 19.5719 494.787H21.8688C21.9794 495.907 23.1438 496.775 24.7581 496.786C26.5825 496.797 27.7581 495.731 27.7356 494.247C27.7244 492.787 26.5713 491.776 24.8463 491.776Z" fill="white" fill-opacity="0.5"/>
    <path d="M40 491C40 494.978 38.4196 498.794 35.6066 501.607C32.7936 504.42 28.9782 506 25 506C21.0218 506 17.2064 504.42 14.3934 501.607C11.5804 498.794 10 494.978 10 491C10 487.022 11.5804 483.206 14.3934 480.393C17.2064 477.58 21.0218 476 25 476C28.9782 476 32.7936 477.58 35.6066 480.393C38.4196 483.206 40 487.022 40 491ZM11.875 491C11.875 494.481 13.2578 497.819 15.7192 500.281C18.1806 502.742 21.519 504.125 25 504.125C28.481 504.125 31.8194 502.742 34.2808 500.281C36.7422 497.819 38.125 494.481 38.125 491C38.125 487.519 36.7422 484.181 34.2808 481.719C31.8194 479.258 28.481 477.875 25 477.875C21.519 477.875 18.1806 479.258 15.7192 481.719C13.2578 484.181 11.875 487.519 11.875 491Z" fill="white" fill-opacity="0.5"/>
    </g>
    <defs>
    <filter id="filter0_d_34_306" x="0" y="166" width="50" height="50" filterUnits="userSpaceOnUse" color-interpolation-filters="sRGB">
    <feFlood flood-opacity="0" result="BackgroundImageFix"/>
    <feColorMatrix in="SourceAlpha" type="matrix" values="0 0 0 0 0 0 0 0 0 0 0 0 0 0 0 0 0 0 127 0" result="hardAlpha"/>
    <feOffset/>
    <feGaussianBlur stdDeviation="5"/>
    <feComposite in2="hardAlpha" operator="out"/>
    <feColorMatrix type="matrix" values="0 0 0 0 1 0 0 0 0 1 0 0 0 0 1 0 0 0 0.5 0"/>
    <feBlend mode="normal" in2="BackgroundImageFix" result="effect1_dropShadow_34_306"/>
    <feBlend mode="normal" in="SourceGraphic" in2="effect1_dropShadow_34_306" result="shape"/>
    </filter>
    <linearGradient id="paint0_linear_34_306" x1="25.5" y1="0.5" x2="25.5" y2="158.5" gradientUnits="userSpaceOnUse">
    <stop stop-color="#363D43"/>
    <stop offset="1" stop-color="white"/>
    </linearGradient>
    <linearGradient id="paint1_linear_34_306" x1="24.5" y1="307" x2="24.5" y2="223" gradientUnits="userSpaceOnUse">
    <stop stop-color="white" stop-opacity="0.5"/>
    <stop offset="1" stop-color="white"/>
    </linearGradient>
    <linearGradient id="paint2_linear_34_306" x1="24.5" y1="530" x2="24.5" y2="614" gradientUnits="userSpaceOnUse">
    <stop stop-color="white" stop-opacity="0.5"/>
    <stop offset="1" stop-color="white" stop-opacity="0"/>
    </linearGradient>
    <clipPath id="clip0_34_306">
    <rect width="30" height="30" fill="white" transform="translate(10 324)"/>
    </clipPath>
    <clipPath id="clip1_34_306">
    <rect width="30" height="30" fill="white" transform="translate(10 476)"/>
    </clipPath>
    </defs>
    </svg>
    