<?xml version="1.0" encoding="utf-8"?>
<!-- Generator: Adobe Illustrator 28.0.0, SVG Export Plug-In . SVG Version: 6.00 Build 0)  -->
<svg version="1.1" id="Layer_1" xmlns="http://www.w3.org/2000/svg" xmlns:xlink="http://www.w3.org/1999/xlink" x="0px" y="0px"
	 viewBox="0 0 717.1 621" style="enable-background:new 0 0 717.1 621;" xml:space="preserve">
<style type="text/css">
	.st0{fill:#F8FFFD;}
</style>
<g id="Layer_2_00000091014348100754641150000004814865768263141783_">
	<g>
		<g>
			<path class="st0" d="M322.9,102.8c-1.3,1.6,26.7-39.9,25.4-37.6c1.3-2.4,1.4,47,0.1,44.7C349.7,112.3,321.6,104.4,322.9,102.8z"
				/>
		</g>
		<g>
			<path class="st0" d="M248.3,96.6c-4.7,1.8,93.1-39.8,88.4-37.6c4.7-2.2-25.9,43-27.6,40.9C310.8,102.1,243.6,98.5,248.3,96.6z"/>
		</g>
		<g>
			<path class="st0" d="M288.4,167.3c-3.1-0.4,27.1-55.9,27.4-50.2c-0.2-5.7,34.9,4.1,31.8,8.9c3.1-4.7,3.1,104.3,0,98.7
				C350.6,230.3,285.2,166.9,288.4,167.3z"/>
		</g>
		<g>
			<path class="st0" d="M235.8,110.1c-3.5-2.4,69.2,1.5,65.7,3.5c3.5-2.1-22.5,45.5-23.5,43C279,159.1,232.3,107.7,235.8,110.1z"/>
		</g>
		<g>
			<path class="st0" d="M227.5,121.8c-2.3-7,46.3,46.5,44,48.5c2.3-1.9-41.7,92.5-39.8,85.5C229.8,262.8,225.1,114.7,227.5,121.8z"
				/>
		</g>
		<g>
			<path class="st0" d="M163.6,223.6c-2.8,2.7,52.1-102.1,49.7-94.8c2.4-7.3,7.2,146.4,4.3,139.1
				C220.5,275.3,160.8,226.3,163.6,223.6z"/>
		</g>
		<g>
			<path class="st0" d="M159.9,240.2c-2-5,57.6,43.9,54,44.3c3.7-0.3-73.2,55.5-69.5,50.5C140.6,340,157.8,235.2,159.9,240.2z"/>
		</g>
		<g>
			<path class="st0" d="M149.3,349.1c-5.5,0.6,74.2-57.3,72.1-52.4c2.1-4.9,38.1,98.7,32.6,93.8
				C259.6,395.4,143.8,349.7,149.3,349.1z"/>
		</g>
		<g>
			<path class="st0" d="M149.1,364.3c-5.3-4,106.4,40.1,101,39.9c5.3,0.2-65,39.7-63.6,35.7C185.2,443.9,143.8,360.3,149.1,364.3z"
				/>
		</g>
		<g>
			<path class="st0" d="M200.5,448.6c-4.7,0.3,64.2-38.4,62.4-35c1.9-3.4,31.7,67.6,27,64.2C294.7,481.1,195.8,448.9,200.5,448.6z"
				/>
		</g>
		<g>
			<path class="st0" d="M201.6,463.4c-4.6-3.2,91.2,28,86.6,28.2c4.6-0.3-41,36.4-41.3,33.1C247.2,527.9,197,460.1,201.6,463.4z"/>
		</g>
		<g>
			<path class="st0" d="M260.8,532.1c-4.1,0.5,40.9-35.6,40.7-32.7c0.2-2.9,41.7,57.9,37.6,55C343.2,557.3,256.7,532.6,260.8,532.1z
				"/>
		</g>
		<g>
			<path class="st0" d="M320.1,504.3c-1.5-2.2,29.6,11.5,28.1,12.4c1.5-0.9,1.6,31.1,0.1,28.9C349.8,547.7,318.6,502.1,320.1,504.3z
				"/>
		</g>
		<g>
			<path class="st0" d="M311.4,484.4c-1.9,3.5,38.6-88.6,36.7-83.3c1.9-5.2,1.8,104.7-0.1,99.5C349.9,505.7,309.5,487.9,311.4,484.4
				z"/>
		</g>
		<g>
			<path class="st0" d="M276.5,407.8c-3.5-2,69.5-29.7,66-25c3.5-4.7-39.8,93.6-39.1,88.9C302.7,476.4,273,405.7,276.5,407.8z"/>
		</g>
		<g>
			<path class="st0" d="M239.6,301.7c-5.3-4.8,105.4,67.7,100.1,65.6c5.3,2.1-70.3,30.7-68.3,25.8
				C269.5,398,234.3,296.9,239.6,301.7z"/>
		</g>
		<g>
			<path class="st0" d="M241.5,287.3c-5.5-1.8,110.3-40.1,104.8-34.7c5.5-5.4,5.5,108.8,0,103.3C351.8,361.4,236,285.5,241.5,287.3z
				"/>
		</g>
		<g>
			<path class="st0" d="M282.1,180.8c-0.9-4.8,64.8,58.9,59.4,57.6c5.4,1.3-107.4,38.6-102,33.8C234.1,277,281.2,176,282.1,180.8z"
				/>
		</g>
	</g>
</g>
<g id="Layer_2_copy">
	<g>
		<g>
			<path class="st0" d="M368.7,65.6c-1.3-2.4,26.7,39.2,25.4,37.6c1.3,1.6-26.8,9.5-25.5,7.1C367.3,112.6,367.3,63.2,368.7,65.6z"/>
		</g>
		<g>
			<path class="st0" d="M380.4,59.4c-4.7-2.2,93.1,39.4,88.4,37.6c4.7,1.8-62.6,5.4-60.8,3.3C406.2,102.4,375.7,57.3,380.4,59.4z"/>
		</g>
		<g>
			<path class="st0" d="M369.5,126.3c-3.1-4.7,32-14.5,31.8-8.9c0.2-5.7,30.5,49.8,27.4,50.2c3.1-0.4-62.3,63-59.2,57.4
				C366.3,230.6,366.3,121.6,369.5,126.3z"/>
		</g>
		<g>
			<path class="st0" d="M415.6,114c-3.5-2.1,69.2-6,65.7-3.5c3.5-2.5-43.3,49-42.3,46.6C438.1,159.5,412.1,112,415.6,114z"/>
		</g>
		<g>
			<path class="st0" d="M445.6,170.6c-2.3-1.9,46.3-55.5,44-48.5c2.3-7.1-2.3,141-4.2,134C487.3,263.1,443.3,168.7,445.6,170.6z"/>
		</g>
		<g>
			<path class="st0" d="M503.8,129.2c-2.4-7.3,52.5,97.5,49.7,94.8c2.8,2.7-56.9,51.6-54,44.3C496.6,275.6,501.4,121.9,503.8,129.2z
				"/>
		</g>
		<g>
			<path class="st0" d="M503.2,284.9c-3.7-0.3,56-49.2,54-44.3c2-5,19.2,99.8,15.6,94.8C576.4,340.4,499.6,284.5,503.2,284.9z"/>
		</g>
		<g>
			<path class="st0" d="M495.6,297.1c-2.1-4.9,77.6,53,72.1,52.4c5.5,0.6-110.3,46.3-104.7,41.4
				C457.5,395.8,493.6,292.1,495.6,297.1z"/>
		</g>
		<g>
			<path class="st0" d="M466.9,404.5c-5.3,0.2,106.4-43.9,101-39.9c5.3-4-36.1,79.6-37.4,75.6C531.9,444.3,461.6,404.8,466.9,404.5z
				"/>
		</g>
		<g>
			<path class="st0" d="M454.2,413.9c-1.9-3.4,67.1,35.4,62.4,35c4.7,0.3-94.1,32.5-89.4,29.1C422.4,481.5,452.3,410.5,454.2,413.9z
				"/>
		</g>
		<g>
			<path class="st0" d="M428.8,492c-4.6-0.3,91.2-31.5,86.7-28.2c4.6-3.2-45.6,64.6-45.4,61.4C469.9,528.3,424.3,491.7,428.8,492z"
				/>
		</g>
		<g>
			<path class="st0" d="M415.5,499.7c-0.2-2.9,44.8,33.2,40.7,32.7c4.1,0.5-82.4,25.2-78.3,22.3
				C373.8,557.7,415.4,496.8,415.5,499.7z"/>
		</g>
		<g>
			<path class="st0" d="M368.8,517c-1.5-0.9,29.6-14.6,28.1-12.4c1.5-2.2-29.7,43.5-28.2,41.3C367.2,548.1,367.3,516.2,368.8,517z"
				/>
		</g>
		<g>
			<path class="st0" d="M368.9,401.4c-1.9-5.2,38.6,86.9,36.7,83.3c1.9,3.5-38.5,21.4-36.6,16.2C367.1,506.1,367,396.1,368.9,401.4z
				"/>
		</g>
		<g>
			<path class="st0" d="M374.6,383.2c-3.5-4.7,69.5,22.9,66,25c3.5-2-26.3,68.6-26.9,63.9C414.3,476.7,371.1,378.5,374.6,383.2z"/>
		</g>
		<g>
			<path class="st0" d="M377.4,367.7c-5.3,2.1,105.4-70.4,100.1-65.6c5.3-4.8-29.9,96.2-31.8,91.4
				C447.6,398.3,372.1,369.8,377.4,367.7z"/>
		</g>
		<g>
			<path class="st0" d="M370.7,253c-5.5-5.4,110.3,32.9,104.8,34.7c5.5-1.8-110.3,74.1-104.8,68.7
				C365.1,361.8,365.1,247.6,370.7,253z"/>
		</g>
		<g>
			<path class="st0" d="M375.6,238.8c-5.4,1.3,60.3-62.4,59.5-57.6c0.9-4.8,48,96.2,42.6,91.4C483,277.3,370.2,240,375.6,238.8z"/>
		</g>
	</g>
</g>
</svg>
